<?xml version="1.0" encoding="utf-8"?>
<!-- Generator: Adobe Illustrator 26.1.0, SVG Export Plug-In . SVG Version: 6.00 Build 0)  -->
<svg version="1.1" id="Layer_1" xmlns="http://www.w3.org/2000/svg" xmlns:xlink="http://www.w3.org/1999/xlink" x="0px" y="0px"
	 viewBox="0 0 1080 290.5" style="enable-background:new 0 0 1080 290.5;" xml:space="preserve">
<style type="text/css">
	.st0{fill:#0A3871;}
</style>
<path class="st0" d="M24.1,142.1c0-18.9,0-37.8,0-56.8c0-29.7,11.9-46.3,40.9-53.2c27.2-6.5,54.4-6.6,80,7
	c13.4,7.1,21.1,18.6,22.5,33.6c1.1,12,1.6,24.2-0.2,36.1c-3.3,21.5-16.4,34.7-37.2,41.1c-17.8,5.5-35.4,11.8-52.9,18.4
	c-9.5,3.6-15.9,10.3-16.8,21.3c-2.1,25.3,10.6,32.2,30.5,34.8c7.2,0.9,14.4,0,21.5-1.6c11.7-2.7,18-10.5,19.8-22
	c0.7-4.5,2.3-6.4,7.1-6.2c7.8,0.4,15.6,0.2,23.4,0c3.9-0.1,5.7,1.1,5.9,5.3c1.2,27.7-14.2,47.3-41.4,52.7c-22.1,4.4-44.1,4.6-66-1.2
	c-21.7-5.8-36.8-24.6-36.9-47C24,183.7,24.1,162.9,24.1,142.1z M71.6,133.7c14-4.8,28-9.3,41.7-14.8c22.6-9.1,22.6-34.1,13-49
	c-2.1-3.2-5.2-5.2-8.7-6.6c-9.9-3.9-20.3-4.5-30.6-3.1c-18.6,2.5-26.7,10.4-27.3,27c-0.6,17.7-0.1,35.5-0.1,54.6
	C63.5,137.2,67.4,135.2,71.6,133.7z"/>
<g>
	<g>
		<path class="st0" d="M190.1,157.7c-1.5,0-2.7-0.5-3.7-1.4c-1-1-1.4-2.2-1.4-3.7V47.3c0-1.5,0.5-2.7,1.4-3.7c1-1,2.2-1.4,3.7-1.4
			h10.4c1.5,0,2.7,0.5,3.7,1.4c1,1,1.4,2.2,1.4,3.7v9.8c3.8-5,8.7-9.1,14.5-12.3c5.8-3.2,13.4-4.8,22.5-4.8c9.6,0,17.8,2.1,24.5,6.3
			c6.7,4.2,11.8,10.1,15.2,17.5c3.4,7.5,5.1,16.2,5.1,26.1v62.6c0,1.5-0.4,2.7-1.3,3.7c-0.9,1-2.1,1.4-3.6,1.4h-11.1
			c-1.5,0-2.7-0.5-3.7-1.4c-1-1-1.4-2.2-1.4-3.7V91.1c0-10.4-2.5-18.5-7.6-24.3c-5-5.8-12.4-8.8-22.2-8.8c-9.2,0-16.5,2.9-22.1,8.8
			c-5.6,5.9-8.3,14-8.3,24.3v61.5c0,1.5-0.5,2.7-1.4,3.7c-1,1-2.2,1.4-3.7,1.4H190.1z"/>
		<path class="st0" d="M366.2,159.9c-10.5,0-19.6-2-27.2-6.1c-7.6-4.1-13.5-9.9-17.7-17.5c-4.1-7.6-6.4-16.8-6.7-27.4
			c-0.1-2.2-0.2-5.2-0.2-8.9c0-3.7,0.1-6.7,0.2-8.9c0.3-10.7,2.5-19.8,6.7-27.4c4.1-7.6,10-13.5,17.7-17.5
			c7.6-4.1,16.7-6.1,27.2-6.1c8.6,0,16,1.2,22.1,3.6c6.1,2.4,11.2,5.4,15.2,9.1c4,3.7,7,7.7,9,12c2,4.3,3.1,8.4,3.2,12.2
			c0.1,1.5-0.3,2.7-1.3,3.6c-1,0.9-2.3,1.3-3.8,1.3H400c-1.5,0-2.6-0.3-3.3-1c-0.7-0.7-1.5-1.8-2.2-3.4c-2.7-7.3-6.3-12.4-10.9-15.3
			c-4.6-3-10.3-4.4-17.1-4.4c-8.9,0-16.1,2.7-21.7,8.2c-5.6,5.5-8.6,14.3-9,26.4c-0.1,5.3-0.1,10.5,0,15.5c0.4,12.3,3.4,21.1,9,26.5
			c5.6,5.4,12.8,8.1,21.7,8.1c6.8,0,12.5-1.5,17.1-4.4c4.6-3,8.2-8.1,10.9-15.3c0.7-1.6,1.5-2.8,2.2-3.4c0.7-0.7,1.8-1,3.3-1h10.7
			c1.5,0,2.7,0.4,3.8,1.3c1,0.9,1.5,2.1,1.3,3.6c-0.1,3.1-0.8,6.3-2,9.5c-1.2,3.3-3.1,6.6-5.7,9.9c-2.6,3.3-5.8,6.3-9.7,8.9
			c-3.9,2.6-8.5,4.7-13.9,6.2C379.2,159.1,373,159.9,366.2,159.9z"/>
		<path class="st0" d="M447.3,157.7c-1.5,0-2.7-0.5-3.7-1.4c-1-1-1.4-2.2-1.4-3.7v-105c0-1.5,0.5-2.7,1.4-3.8c1-1,2.2-1.6,3.7-1.6
			h10.2c1.5,0,2.7,0.5,3.8,1.6c1,1,1.6,2.3,1.6,3.8v9.8c3-5,7-8.8,12.2-11.3c5.2-2.5,11.4-3.8,18.7-3.8h8.9c1.5,0,2.7,0.5,3.6,1.4
			c0.9,1,1.3,2.2,1.3,3.7v9.1c0,1.5-0.4,2.7-1.3,3.6c-0.9,0.9-2.1,1.3-3.6,1.3h-13.3c-8,0-14.3,2.3-18.9,7c-4.6,4.7-6.9,11-6.9,19
			v65.3c0,1.5-0.5,2.7-1.6,3.7c-1,1-2.3,1.4-3.8,1.4H447.3z"/>
		<path class="st0" d="M546.8,199.9c-1.2,0-2.2-0.4-3.1-1.3c-0.9-0.9-1.3-1.9-1.3-3.1c0-0.6,0.1-1.2,0.2-1.8
			c0.1-0.6,0.4-1.3,0.9-2.2l17.1-40.6L518.1,50.6c-0.7-1.8-1.1-3-1.1-3.8c0-1.3,0.4-2.4,1.3-3.3c0.9-0.9,2-1.3,3.3-1.3h10.9
			c1.5,0,2.7,0.4,3.6,1.1c0.9,0.7,1.5,1.6,1.8,2.7l33.8,80.8L606.3,46c0.4-1,1.1-1.9,1.9-2.7c0.8-0.7,2-1.1,3.7-1.1h10.4
			c1.3,0,2.4,0.4,3.3,1.3c0.9,0.9,1.3,1.9,1.3,3.1c0,0.7-0.4,2.1-1.1,4l-63.1,145.5c-0.4,1-1.1,1.9-1.9,2.7c-0.8,0.7-2,1.1-3.7,1.1
			H546.8z"/>
		<path class="st0" d="M654.3,199.9c-1.5,0-2.7-0.5-3.7-1.4c-1-1-1.4-2.2-1.4-3.7V47.3c0-1.5,0.5-2.7,1.4-3.7c1-1,2.2-1.4,3.7-1.4
			h10.2c1.5,0,2.7,0.5,3.7,1.4c1,1,1.4,2.2,1.4,3.7v9.8c3.6-4.9,8.3-9,14.2-12.2c5.9-3.3,13.3-4.9,22.2-4.9c8.3,0,15.4,1.4,21.2,4.2
			c5.8,2.8,10.7,6.7,14.4,11.5s6.6,10.4,8.5,16.7c1.9,6.2,3,12.9,3.1,20c0.1,2.4,0.2,4.9,0.2,7.6c0,2.7-0.1,5.2-0.2,7.6
			c-0.1,7-1.2,13.6-3.1,19.9c-1.9,6.3-4.8,11.8-8.5,16.7c-3.8,4.8-8.6,8.7-14.4,11.5c-5.9,2.9-12.9,4.3-21.2,4.3
			c-8.6,0-15.8-1.6-21.7-4.8c-5.9-3.2-10.6-7.1-14.3-11.9v51.5c0,1.5-0.4,2.7-1.3,3.7c-0.9,1-2.1,1.4-3.8,1.4H654.3z M701.3,141.9
			c7.7,0,13.7-1.7,18.1-5c4.4-3.3,7.5-7.7,9.4-13.1c1.9-5.4,3-11.2,3.3-17.4c0.1-4.3,0.1-8.6,0-12.9c-0.3-6.2-1.4-12-3.3-17.4
			c-1.9-5.4-5.1-9.8-9.4-13.1c-4.4-3.3-10.4-5-18.1-5c-7.3,0-13.1,1.7-17.7,5.1c-4.5,3.4-7.8,7.7-10,13c-2.1,5.3-3.4,10.6-3.7,16.1
			c-0.1,2.4-0.2,5.2-0.2,8.4c0,3.3,0.1,6.1,0.2,8.7c0.1,5.2,1.4,10.3,3.7,15.3c2.3,5,5.7,9.2,10.3,12.4
			C688.6,140.3,694.4,141.9,701.3,141.9z"/>
		<path class="st0" d="M825,157.7c-8.3,0-15-1.6-20.2-4.8c-5.2-3.2-9-7.7-11.3-13.5c-2.4-5.8-3.6-12.8-3.6-20.8V60h-17.3
			c-1.5,0-2.7-0.5-3.7-1.4c-1-1-1.4-2.2-1.4-3.7v-7.6c0-1.5,0.5-2.7,1.4-3.7c1-1,2.2-1.4,3.7-1.4h17.3V5.1c0-1.5,0.5-2.7,1.4-3.7
			c1-1,2.2-1.4,3.7-1.4h10.4c1.5,0,2.7,0.5,3.7,1.4c1,1,1.4,2.2,1.4,3.7v37.1h27.5c1.5,0,2.7,0.5,3.7,1.4c1,1,1.4,2.2,1.4,3.7v7.6
			c0,1.5-0.5,2.7-1.4,3.7c-1,1-2.2,1.4-3.7,1.4h-27.5V117c0,7,1.2,12.4,3.6,16.4c2.4,4,6.6,6,12.7,6h13.5c1.5,0,2.7,0.5,3.7,1.4
			c1,1,1.4,2.2,1.4,3.7v8c0,1.5-0.5,2.7-1.4,3.7c-1,1-2.2,1.4-3.7,1.4H825z"/>
		<path class="st0" d="M912.8,159.9c-15.3,0-27.4-4.7-36.4-14.1c-9-9.4-14-22.2-14.9-38.5c-0.1-1.9-0.2-4.4-0.2-7.4
			c0-3,0.1-5.5,0.2-7.4c0.6-10.5,3-19.7,7.3-27.6c4.3-7.9,10.2-14,17.7-18.3c7.5-4.3,16.2-6.4,26.3-6.4c11.2,0,20.7,2.4,28.3,7.1
			c7.6,4.7,13.4,11.5,17.4,20.2c4,8.7,6,19,6,30.6v3.8c0,1.6-0.5,2.9-1.4,3.8c-1,0.9-2.2,1.3-3.7,1.3h-76.8c0,0.1,0,0.4,0,0.9
			s0,0.8,0,1.1c0.3,6.1,1.6,11.7,4,17c2.4,5.3,5.8,9.5,10.2,12.8c4.4,3.3,9.8,4.9,16,4.9c5.3,0,9.8-0.8,13.3-2.4
			c3.6-1.6,6.4-3.4,8.7-5.4c2.2-2,3.7-3.5,4.4-4.6c1.3-1.9,2.4-3.1,3.1-3.4c0.7-0.4,1.9-0.6,3.6-0.6h10.7c1.5,0,2.7,0.4,3.7,1.2
			c1,0.8,1.4,2,1.2,3.4c-0.1,2.2-1.3,4.9-3.6,8.1c-2.2,3.2-5.4,6.3-9.5,9.4c-4.1,3.1-9.2,5.7-15.1,7.7
			C927.3,158.9,920.5,159.9,912.8,159.9z M882.6,91.5h60.8v-0.7c0-6.7-1.2-12.6-3.7-17.8c-2.4-5.2-6-9.3-10.5-12.3
			c-4.6-3-10.1-4.6-16.4-4.6c-6.4,0-11.8,1.5-16.3,4.6c-4.5,3-8,7.1-10.3,12.3c-2.4,5.2-3.6,11.1-3.6,17.8V91.5z"/>
		<path class="st0" d="M996.3,157.7c-1.5,0-2.7-0.5-3.7-1.4c-1-1-1.4-2.2-1.4-3.7v-105c0-1.5,0.5-2.7,1.4-3.8c1-1,2.2-1.6,3.7-1.6
			h10.2c1.5,0,2.7,0.5,3.8,1.6c1,1,1.6,2.3,1.6,3.8v9.8c3-5,7-8.8,12.2-11.3c5.2-2.5,11.4-3.8,18.7-3.8h8.9c1.5,0,2.7,0.5,3.6,1.4
			c0.9,1,1.3,2.2,1.3,3.7v9.1c0,1.5-0.4,2.7-1.3,3.6c-0.9,0.9-2.1,1.3-3.6,1.3h-13.3c-8,0-14.3,2.3-18.9,7c-4.6,4.7-6.9,11-6.9,19
			v65.3c0,1.5-0.5,2.7-1.6,3.7c-1,1-2.3,1.4-3.8,1.4H996.3z"/>
	</g>
</g>
<g>
	<g>
		<path class="st0" d="M182,259.6c-0.5,0-0.9-0.2-1.2-0.5c-0.4-0.4-0.5-0.8-0.5-1.2c0-0.3,0-0.6,0.1-1l22-57.3
			c0.2-0.6,0.6-1.1,1-1.4c0.4-0.4,1-0.5,1.9-0.5h6c0.8,0,1.4,0.2,1.8,0.5c0.4,0.4,0.8,0.8,1,1.4l21.9,57.3c0.1,0.4,0.2,0.7,0.2,1
			c0,0.5-0.2,0.9-0.5,1.2c-0.4,0.4-0.8,0.5-1.2,0.5h-4.5c-0.7,0-1.2-0.2-1.6-0.5c-0.3-0.4-0.5-0.7-0.7-1l-4.9-12.6h-29.1l-4.9,12.6
			c-0.1,0.3-0.3,0.6-0.6,1c-0.4,0.4-0.9,0.5-1.6,0.5H182z M196.1,237.9h23.9l-12-31.5L196.1,237.9z"/>
		<path class="st0" d="M246.5,259.6c-0.6,0-1.1-0.2-1.5-0.6c-0.4-0.4-0.6-0.9-0.6-1.5v-58.8c0-0.6,0.2-1.1,0.6-1.5
			c0.4-0.4,0.9-0.6,1.5-0.6h4.2c0.6,0,1.2,0.2,1.5,0.6c0.4,0.4,0.5,0.9,0.5,1.5v58.8c0,0.6-0.2,1.1-0.5,1.5
			c-0.4,0.4-0.9,0.6-1.5,0.6H246.5z"/>
		<path class="st0" d="M283,260.5c-3.8,0-7-0.8-9.6-2.5c-2.6-1.7-4.6-4-6-7c-1.4-3-2-6.5-2-10.4v-25c0-0.6,0.2-1.1,0.6-1.5
			c0.4-0.4,0.9-0.6,1.5-0.6h4.4c0.6,0,1.1,0.2,1.5,0.6c0.4,0.4,0.6,0.9,0.6,1.5v24.5c0,8.8,3.8,13.2,11.5,13.2
			c3.7,0,6.6-1.2,8.8-3.5c2.2-2.3,3.3-5.6,3.3-9.7v-24.5c0-0.6,0.2-1.1,0.6-1.5c0.4-0.4,0.9-0.6,1.5-0.6h4.3c0.6,0,1.2,0.2,1.5,0.6
			c0.4,0.4,0.5,0.9,0.5,1.5v42c0,0.6-0.2,1.1-0.5,1.5c-0.4,0.4-0.9,0.6-1.5,0.6h-4.1c-0.6,0-1.1-0.2-1.5-0.6
			c-0.4-0.4-0.6-0.9-0.6-1.5v-3.9c-1.6,2.1-3.5,3.7-5.8,5C289.8,259.9,286.8,260.5,283,260.5z"/>
		<path class="st0" d="M321.2,259.6c-0.6,0-1.1-0.2-1.5-0.6c-0.4-0.4-0.6-0.9-0.6-1.5v-41.9c0-0.6,0.2-1.1,0.6-1.5
			c0.4-0.4,0.9-0.6,1.5-0.6h4.1c0.6,0,1.1,0.2,1.5,0.6c0.4,0.4,0.6,0.9,0.6,1.5v3.9c1.2-2,2.8-3.5,4.9-4.5c2.1-1,4.5-1.5,7.4-1.5
			h3.5c0.6,0,1.1,0.2,1.4,0.6c0.4,0.4,0.5,0.9,0.5,1.5v3.6c0,0.6-0.2,1.1-0.5,1.4c-0.4,0.4-0.8,0.5-1.4,0.5H338
			c-3.2,0-5.7,0.9-7.5,2.8c-1.8,1.9-2.7,4.4-2.7,7.6v26c0,0.6-0.2,1.1-0.6,1.5c-0.4,0.4-0.9,0.6-1.5,0.6H321.2z"/>
		<path class="st0" d="M365,260.5c-3,0-5.6-0.6-8.1-1.8c-2.4-1.2-4.4-2.8-5.8-4.8c-1.5-2-2.2-4.3-2.2-6.8c0-4.1,1.7-7.3,5-9.7
			c3.3-2.4,7.6-4,12.9-4.8l13.2-1.9v-2.6c0-2.8-0.8-5-2.4-6.6c-1.6-1.6-4.3-2.4-7.9-2.4c-2.7,0-4.8,0.5-6.4,1.6
			c-1.6,1.1-2.8,2.4-3.4,4.1c-0.4,0.9-1,1.3-1.9,1.3h-4c-0.7,0-1.1-0.2-1.5-0.6c-0.3-0.4-0.5-0.8-0.5-1.4c0-0.9,0.3-2,1-3.3
			c0.7-1.3,1.7-2.6,3.1-3.8c1.4-1.2,3.2-2.3,5.4-3.1c2.2-0.9,4.9-1.3,8.1-1.3c3.5,0,6.5,0.5,8.9,1.4c2.4,0.9,4.3,2.1,5.7,3.7
			c1.4,1.5,2.4,3.3,3,5.2c0.6,1.9,0.9,3.9,0.9,5.9v28.7c0,0.6-0.2,1.1-0.6,1.5c-0.4,0.4-0.9,0.6-1.5,0.6h-4.1
			c-0.7,0-1.2-0.2-1.5-0.6c-0.4-0.4-0.5-0.9-0.5-1.5v-3.8c-0.8,1.1-1.8,2.1-3.1,3.1c-1.3,1-2.9,1.9-4.9,2.6S367.8,260.5,365,260.5z
			 M366.9,253.8c2.4,0,4.6-0.5,6.6-1.6c2-1,3.6-2.6,4.7-4.8c1.2-2.2,1.7-4.9,1.7-8.2v-2.5l-10.3,1.5c-4.2,0.6-7.4,1.6-9.5,3
			c-2.1,1.4-3.2,3.1-3.2,5.3c0,1.7,0.5,3,1.5,4.1c1,1.1,2.2,1.9,3.7,2.4C363.7,253.6,365.3,253.8,366.9,253.8z"/>
		<path class="st0" d="M446.2,260.5c-5.4,0-9.9-1-13.5-3c-3.6-2-6.3-4.8-8.1-8.4c-1.8-3.6-2.8-7.8-3-12.6c-0.1-2.4-0.1-5-0.1-7.8
			c0-2.8,0-5.4,0.1-8c0.2-4.8,1.2-9,3-12.6c1.8-3.6,4.5-6.4,8.1-8.4c3.6-2,8.1-3,13.5-3c4.1,0,7.6,0.6,10.7,1.7
			c3.1,1.1,5.6,2.6,7.7,4.5c2,1.9,3.6,4,4.7,6.3c1.1,2.3,1.7,4.7,1.8,7.2c0.1,0.5-0.1,1-0.5,1.3c-0.4,0.4-0.8,0.5-1.4,0.5h-4.9
			c-0.5,0-1-0.1-1.4-0.4c-0.4-0.3-0.7-0.8-0.8-1.6c-1-4.6-2.9-7.8-5.6-9.5c-2.7-1.7-6.2-2.6-10.3-2.6c-4.7,0-8.5,1.3-11.3,4
			c-2.8,2.7-4.3,7-4.5,12.9c-0.2,4.8-0.2,9.8,0,14.9c0.2,5.9,1.7,10.2,4.5,12.9c2.8,2.7,6.5,4,11.3,4c4.1,0,7.6-0.9,10.3-2.6
			c2.7-1.7,4.6-4.9,5.6-9.5c0.2-0.8,0.5-1.3,0.8-1.6c0.4-0.3,0.8-0.4,1.4-0.4h4.9c0.5,0,1,0.2,1.4,0.5c0.4,0.4,0.5,0.8,0.5,1.3
			c-0.1,2.5-0.7,4.9-1.8,7.2c-1.1,2.3-2.6,4.4-4.7,6.3c-2,1.9-4.6,3.4-7.7,4.5C453.9,259.9,450.3,260.5,446.2,260.5z"/>
		<path class="st0" d="M483.9,259.6c-0.6,0-1.1-0.2-1.5-0.6c-0.4-0.4-0.6-0.9-0.6-1.5v-58.8c0-0.6,0.2-1.1,0.6-1.5
			c0.4-0.4,0.9-0.6,1.5-0.6h4.4c0.6,0,1.2,0.2,1.5,0.6c0.4,0.4,0.5,0.9,0.5,1.5v20.6c1.6-2,3.5-3.6,5.8-4.9c2.3-1.2,5.2-1.9,8.8-1.9
			c3.8,0,7.1,0.8,9.8,2.5c2.7,1.7,4.7,4,6.1,7c1.4,3,2.1,6.5,2.1,10.4v25c0,0.6-0.2,1.1-0.5,1.5c-0.4,0.4-0.9,0.6-1.5,0.6h-4.4
			c-0.6,0-1.1-0.2-1.5-0.6c-0.4-0.4-0.6-0.9-0.6-1.5V233c0-4.1-1-7.4-3-9.7c-2-2.3-5-3.5-8.9-3.5c-3.7,0-6.6,1.2-8.9,3.5
			c-2.2,2.3-3.4,5.6-3.4,9.7v24.5c0,0.6-0.2,1.1-0.5,1.5c-0.4,0.4-0.9,0.6-1.5,0.6H483.9z"/>
		<path class="st0" d="M548.6,260.5c-3,0-5.6-0.6-8.1-1.8c-2.4-1.2-4.4-2.8-5.8-4.8c-1.5-2-2.2-4.3-2.2-6.8c0-4.1,1.7-7.3,5-9.7
			c3.3-2.4,7.6-4,12.9-4.8l13.2-1.9v-2.6c0-2.8-0.8-5-2.4-6.6c-1.6-1.6-4.3-2.4-7.9-2.4c-2.7,0-4.8,0.5-6.4,1.6
			c-1.6,1.1-2.8,2.4-3.4,4.1c-0.4,0.9-1,1.3-1.9,1.3h-4c-0.7,0-1.1-0.2-1.5-0.6c-0.3-0.4-0.5-0.8-0.5-1.4c0-0.9,0.3-2,1-3.3
			c0.7-1.3,1.7-2.6,3.1-3.8c1.4-1.2,3.2-2.3,5.5-3.1c2.2-0.9,4.9-1.3,8.1-1.3c3.5,0,6.5,0.5,8.9,1.4c2.4,0.9,4.3,2.1,5.7,3.7
			c1.4,1.5,2.4,3.3,3,5.2c0.6,1.9,0.9,3.9,0.9,5.9v28.7c0,0.6-0.2,1.1-0.6,1.5c-0.4,0.4-0.9,0.6-1.5,0.6h-4.1
			c-0.7,0-1.2-0.2-1.5-0.6c-0.4-0.4-0.5-0.9-0.5-1.5v-3.8c-0.8,1.1-1.8,2.1-3.1,3.1c-1.3,1-2.9,1.9-4.9,2.6
			C553.8,260.2,551.4,260.5,548.6,260.5z M550.4,253.8c2.4,0,4.6-0.5,6.6-1.6c2-1,3.6-2.6,4.7-4.8c1.2-2.2,1.7-4.9,1.7-8.2v-2.5
			l-10.3,1.5c-4.2,0.6-7.4,1.6-9.5,3c-2.1,1.4-3.2,3.1-3.2,5.3c0,1.7,0.5,3,1.5,4.1c1,1.1,2.2,1.9,3.7,2.4
			C547.3,253.6,548.8,253.8,550.4,253.8z"/>
		<path class="st0" d="M586.7,259.6c-0.6,0-1.1-0.2-1.5-0.6c-0.4-0.4-0.6-0.9-0.6-1.5v-58.8c0-0.6,0.2-1.1,0.6-1.5
			c0.4-0.4,0.9-0.6,1.5-0.6h4.2c0.7,0,1.2,0.2,1.5,0.6c0.4,0.4,0.5,0.9,0.5,1.5v58.8c0,0.6-0.2,1.1-0.5,1.5
			c-0.4,0.4-0.9,0.6-1.5,0.6H586.7z"/>
		<path class="st0" d="M608.3,259.6c-0.6,0-1.1-0.2-1.5-0.6c-0.4-0.4-0.6-0.9-0.6-1.5v-58.8c0-0.6,0.2-1.1,0.6-1.5
			c0.4-0.4,0.9-0.6,1.5-0.6h4.2c0.7,0,1.2,0.2,1.5,0.6c0.4,0.4,0.5,0.9,0.5,1.5v58.8c0,0.6-0.2,1.1-0.5,1.5
			c-0.4,0.4-0.9,0.6-1.5,0.6H608.3z"/>
		<path class="st0" d="M646,260.5c-6.1,0-10.9-1.9-14.5-5.6c-3.6-3.8-5.6-8.9-5.9-15.4c-0.1-0.8-0.1-1.8-0.1-3c0-1.2,0-2.2,0.1-3
			c0.2-4.2,1.2-7.9,2.9-11c1.7-3.2,4.1-5.6,7-7.3c3-1.7,6.5-2.6,10.5-2.6c4.5,0,8.3,0.9,11.3,2.8c3,1.9,5.4,4.6,7,8.1
			c1.6,3.5,2.4,7.6,2.4,12.2v1.5c0,0.7-0.2,1.2-0.6,1.5c-0.4,0.4-0.9,0.5-1.5,0.5H634c0,0.1,0,0.2,0,0.4s0,0.3,0,0.4
			c0.1,2.4,0.7,4.7,1.6,6.8c0.9,2.1,2.3,3.8,4.1,5.1c1.8,1.3,3.9,1.9,6.4,1.9c2.1,0,3.9-0.3,5.3-1c1.4-0.6,2.6-1.4,3.5-2.2
			c0.9-0.8,1.5-1.4,1.8-1.8c0.5-0.8,0.9-1.2,1.2-1.4c0.3-0.1,0.8-0.2,1.4-0.2h4.3c0.6,0,1.1,0.2,1.5,0.5c0.4,0.3,0.5,0.8,0.5,1.4
			c-0.1,0.9-0.5,2-1.4,3.2c-0.9,1.3-2.2,2.5-3.8,3.8c-1.7,1.2-3.7,2.3-6,3.1C651.8,260.1,649.1,260.5,646,260.5z M634,233.2h24.3
			v-0.3c0-2.7-0.5-5-1.5-7.1c-1-2.1-2.4-3.7-4.2-4.9c-1.8-1.2-4-1.8-6.6-1.8c-2.5,0-4.7,0.6-6.5,1.8c-1.8,1.2-3.2,2.9-4.1,4.9
			c-0.9,2.1-1.4,4.4-1.4,7.1V233.2z"/>
		<path class="st0" d="M679.3,259.6c-0.6,0-1.1-0.2-1.5-0.6c-0.4-0.4-0.6-0.9-0.6-1.5v-42c0-0.6,0.2-1.1,0.6-1.5
			c0.4-0.4,0.9-0.6,1.5-0.6h4.2c0.6,0,1.1,0.2,1.5,0.6c0.4,0.4,0.6,0.9,0.6,1.5v3.9c1.5-2,3.5-3.6,5.8-4.9c2.3-1.3,5.3-1.9,9-1.9
			c3.8,0,7.1,0.8,9.8,2.5c2.7,1.7,4.7,4,6.1,7c1.4,3,2,6.5,2,10.4v25c0,0.6-0.2,1.1-0.5,1.5c-0.4,0.4-0.8,0.6-1.4,0.6h-4.4
			c-0.6,0-1.1-0.2-1.5-0.6c-0.4-0.4-0.6-0.9-0.6-1.5V233c0-4.1-1-7.4-3-9.7c-2-2.3-5-3.5-8.9-3.5c-3.7,0-6.6,1.2-8.8,3.5
			c-2.2,2.3-3.3,5.6-3.3,9.7v24.5c0,0.6-0.2,1.1-0.6,1.5c-0.4,0.4-0.9,0.6-1.5,0.6H679.3z"/>
		<path class="st0" d="M749.9,279.1c-4,0-7.3-0.5-9.9-1.6c-2.6-1.1-4.6-2.3-6-3.9c-1.4-1.5-2.5-3-3.1-4.5c-0.6-1.5-1-2.7-1-3.6
			c-0.1-0.6,0.1-1.1,0.6-1.5c0.4-0.4,0.9-0.6,1.5-0.6h4.3c0.5,0,1,0.1,1.3,0.4c0.4,0.2,0.6,0.7,0.9,1.5c0.4,0.9,0.9,1.9,1.6,3
			c0.7,1.1,1.8,2,3.3,2.8c1.5,0.8,3.5,1.2,6.2,1.2c2.8,0,5.1-0.4,7-1.1c1.9-0.7,3.3-2,4.3-3.9c1-1.9,1.5-4.4,1.5-7.7v-6
			c-1.4,1.8-3.3,3.4-5.6,4.6s-5.2,1.8-8.7,1.8c-3.3,0-6.1-0.6-8.5-1.7c-2.4-1.2-4.3-2.7-5.8-4.7c-1.5-2-2.6-4.2-3.4-6.8
			c-0.7-2.5-1.2-5.2-1.3-8c-0.1-1.7-0.1-3.3,0-4.9c0.1-2.8,0.5-5.4,1.3-8c0.7-2.5,1.9-4.8,3.4-6.8c1.5-2,3.4-3.6,5.8-4.7
			c2.4-1.2,5.2-1.7,8.5-1.7c3.5,0,6.5,0.7,8.8,2c2.3,1.3,4.2,2.9,5.7,4.8v-3.8c0-0.6,0.2-1.1,0.6-1.5c0.4-0.4,0.9-0.6,1.5-0.6h4.1
			c0.6,0,1.1,0.2,1.5,0.6c0.4,0.4,0.6,0.9,0.6,1.5v43c0,4-0.7,7.5-2,10.5c-1.3,3.1-3.5,5.5-6.6,7.3
			C759.1,278.2,755,279.1,749.9,279.1z M749.7,252.9c3,0,5.3-0.7,7.1-2c1.8-1.4,3.1-3.1,4-5.1c0.9-2.1,1.3-4.2,1.4-6.3
			c0.1-0.8,0.1-1.8,0.1-3.1c0-1.2,0-2.2-0.1-3.1c-0.1-2.1-0.5-4.2-1.4-6.3c-0.9-2.1-2.2-3.8-4-5.1c-1.8-1.4-4.2-2-7.1-2
			c-3,0-5.3,0.7-7.1,2c-1.8,1.3-3,3.1-3.8,5.2c-0.8,2.2-1.2,4.5-1.3,7c-0.1,1.5-0.1,3.1,0,4.7c0.1,2.5,0.6,4.8,1.3,7
			c0.8,2.2,2,3.9,3.8,5.2C744.4,252.2,746.7,252.9,749.7,252.9z"/>
		<path class="st0" d="M802.2,260.5c-6.1,0-10.9-1.9-14.5-5.6c-3.6-3.8-5.6-8.9-5.9-15.4c-0.1-0.8-0.1-1.8-0.1-3c0-1.2,0-2.2,0.1-3
			c0.2-4.2,1.2-7.9,2.9-11c1.7-3.2,4.1-5.6,7-7.3c3-1.7,6.5-2.6,10.5-2.6c4.5,0,8.3,0.9,11.3,2.8c3,1.9,5.4,4.6,7,8.1
			c1.6,3.5,2.4,7.6,2.4,12.2v1.5c0,0.7-0.2,1.2-0.6,1.5c-0.4,0.4-0.9,0.5-1.5,0.5h-30.7c0,0.1,0,0.2,0,0.4s0,0.3,0,0.4
			c0.1,2.4,0.7,4.7,1.6,6.8c0.9,2.1,2.3,3.8,4.1,5.1c1.8,1.3,3.9,1.9,6.4,1.9c2.1,0,3.9-0.3,5.3-1c1.4-0.6,2.6-1.4,3.5-2.2
			c0.9-0.8,1.5-1.4,1.8-1.8c0.5-0.8,0.9-1.2,1.2-1.4c0.3-0.1,0.8-0.2,1.4-0.2h4.3c0.6,0,1.1,0.2,1.5,0.5c0.4,0.3,0.5,0.8,0.5,1.4
			c-0.1,0.9-0.5,2-1.4,3.2c-0.9,1.3-2.2,2.5-3.8,3.8c-1.7,1.2-3.7,2.3-6,3.1C808,260.1,805.3,260.5,802.2,260.5z M790.2,233.2h24.3
			v-0.3c0-2.7-0.5-5-1.5-7.1c-1-2.1-2.4-3.7-4.2-4.9c-1.8-1.2-4-1.8-6.6-1.8c-2.5,0-4.7,0.6-6.5,1.8c-1.8,1.2-3.2,2.9-4.1,4.9
			c-0.9,2.1-1.4,4.4-1.4,7.1V233.2z"/>
		<path class="st0" d="M878.6,260.5c-5,0-9.3-0.9-12.9-2.6c-3.6-1.7-6.4-4.4-8.3-8.1c-1.9-3.6-3-8.2-3.3-13.7
			c-0.1-2.6-0.1-5.1-0.1-7.5c0-2.4,0-4.9,0.1-7.5c0.2-5.4,1.4-10,3.4-13.6c2-3.6,4.9-6.3,8.5-8.2c3.6-1.8,7.8-2.7,12.6-2.7
			c4.8,0,9.1,0.9,12.7,2.7c3.6,1.8,6.5,4.5,8.5,8.2c2.1,3.6,3.2,8.2,3.4,13.6c0.1,2.6,0.2,5.1,0.2,7.5c0,2.4-0.1,4.9-0.2,7.5
			c-0.2,5.5-1.3,10.1-3.2,13.7c-2,3.6-4.8,6.3-8.4,8.1C888,259.6,883.7,260.5,878.6,260.5z M878.6,253c4.5,0,8.3-1.4,11.1-4.1
			c2.9-2.7,4.4-7.1,4.7-13.2c0.1-2.7,0.2-5,0.2-7.1c0-2.1-0.1-4.4-0.2-7c-0.1-4.1-0.9-7.4-2.3-9.9c-1.4-2.5-3.2-4.4-5.5-5.6
			c-2.3-1.2-5-1.8-8-1.8c-2.9,0-5.5,0.6-7.8,1.8c-2.3,1.2-4.1,3-5.5,5.6c-1.4,2.5-2.2,5.8-2.3,9.9c-0.1,2.6-0.1,4.9-0.1,7
			c0,2.1,0,4.5,0.1,7.1c0.2,6.1,1.8,10.5,4.7,13.2C870.5,251.6,874.2,253,878.6,253z"/>
		<path class="st0" d="M918.4,259.6c-0.7,0-1.2-0.2-1.5-0.6c-0.4-0.4-0.5-0.9-0.5-1.5v-57.9c0-0.6,0.2-1.2,0.5-1.6
			c0.4-0.4,0.9-0.6,1.5-0.6h4.1c0.7,0,1.2,0.2,1.6,0.5c0.4,0.3,0.6,0.6,0.6,0.8l29.4,45.2v-44.3c0-0.6,0.2-1.2,0.5-1.6
			c0.4-0.4,0.9-0.6,1.5-0.6h4.3c0.6,0,1.2,0.2,1.5,0.6c0.4,0.4,0.6,0.9,0.6,1.6v57.8c0,0.6-0.2,1.1-0.6,1.5
			c-0.4,0.4-0.9,0.6-1.5,0.6h-4.3c-0.7,0-1.1-0.2-1.5-0.5c-0.3-0.4-0.5-0.6-0.7-0.7l-29.3-44.7v43.9c0,0.6-0.2,1.1-0.6,1.5
			c-0.4,0.4-0.9,0.6-1.6,0.6H918.4z"/>
		<path class="st0" d="M979.8,259.6c-0.7,0-1.2-0.2-1.5-0.6c-0.4-0.4-0.5-0.9-0.5-1.5v-57.9c0-0.6,0.2-1.2,0.5-1.6
			c0.4-0.4,0.9-0.6,1.5-0.6h36.6c0.6,0,1.2,0.2,1.5,0.6c0.4,0.4,0.5,0.9,0.5,1.6v3.4c0,0.7-0.2,1.2-0.5,1.5
			c-0.4,0.4-0.9,0.5-1.5,0.5h-30.1v19.4h28.2c0.6,0,1.2,0.2,1.5,0.6c0.4,0.4,0.5,0.9,0.5,1.6v3.3c0,0.6-0.2,1.1-0.5,1.5
			c-0.4,0.4-0.9,0.6-1.5,0.6h-28.2v20.1h30.8c0.6,0,1.2,0.2,1.5,0.5c0.4,0.4,0.5,0.9,0.5,1.5v3.5c0,0.6-0.2,1.1-0.5,1.5
			c-0.4,0.4-0.9,0.6-1.5,0.6H979.8z"/>
	</g>
</g>
</svg>
